<?xml version="1.0"?>
<svg xmlns="http://www.w3.org/2000/svg" height="512px" viewBox="0 -49 512 512" width="512px"><path d="m512 345.675781v-345.675781h-512v345.675781h201.320312l-4.949218 38.070313h-23.367188v30.0625h165.992188v-30.0625h-23.367188l-4.949218-38.070313zm-30.058594-315.617187v211.414062h-451.882812v-211.414062zm-451.882812 285.558594v-44.085938h451.882812v44.085938zm255.257812 68.132812h-58.632812l4.949218-38.074219h48.734376zm0 0" fill="#b8b8b8"/><path d="m182.722656 181.472656-40.71875-44.203125 40.71875-44.203125-22.109375-20.367187-59.476562 64.570312 59.476562 64.566407zm0 0" fill="#b8b8b8"/><path d="m351.386719 201.835938 59.476562-64.566407-59.476562-64.570312-22.109375 20.367187 40.71875 44.203125-40.71875 44.203125zm0 0" fill="#b8b8b8"/><path d="m196.480469 202.839844 93.6875-147.289063 25.359375 16.132813-93.683594 147.289062zm0 0" fill="#b8b8b8"/></svg>
